
<svg width="44" height="44" viewBox="0 0 44 44" fill="none" xmlns="http://www.w3.org/2000/svg">
    <path d="M11.6198 27.2148C11.8347 25.4357 12.5644 24.4396 13.9394 23.4185C15.9068 22.0355 18.3644 22.8178 18.3644 22.8178V18.177C18.9619 18.1617 19.5596 18.1971 20.1506 18.2828V24.2551C20.1506 24.2551 17.6937 23.4728 15.7263 24.8565C14.352 25.8769 13.6208 26.8737 13.4067 28.6528C13.4 29.6189 13.5813 30.8817 14.4162 31.9737C14.2097 31.8678 13.9993 31.7472 13.785 31.6118C11.9459 30.3769 11.6109 28.5241 11.6198 27.2148ZM30.2981 9.59604C28.9447 8.11297 28.4329 6.6156 28.2478 5.56372H29.9504C29.9504 5.56372 29.611 8.32177 32.085 11.0341L32.1193 11.0705C31.4525 10.6511 30.841 10.156 30.2981 9.59604ZM38.4998 13.8007V19.6529C38.4998 19.6529 36.3272 19.5678 34.7194 19.1588C32.4744 18.5867 31.0315 17.7093 31.0315 17.7093C31.0315 17.7093 30.0347 17.0836 29.9541 17.04V29.1248C29.9541 29.7977 29.7699 31.4781 29.2081 32.8797C28.4747 34.7131 27.3428 35.9166 27.1347 36.1626C27.1347 36.1626 25.7582 37.7894 23.3296 38.8849C21.1406 39.8731 19.2187 39.8481 18.6442 39.8731C18.6442 39.8731 15.3219 40.0047 12.3323 38.0618C11.6859 37.6336 11.0824 37.1486 10.5298 36.6131L10.5447 36.6238C13.535 38.5667 16.8566 38.4351 16.8566 38.4351C17.4318 38.4101 19.3538 38.4351 21.542 37.4469C23.9683 36.3514 25.3471 34.7246 25.3471 34.7246C25.553 34.4786 26.69 33.2751 27.4204 31.4409C27.9807 30.0401 28.1665 28.3589 28.1665 27.6861V15.6027C28.2471 15.647 29.2431 16.2727 29.2431 16.2727C29.2431 16.2727 30.6868 17.1508 32.9318 17.7222C34.5403 18.1312 36.7122 18.2163 36.7122 18.2163V13.6305C37.4553 13.7971 38.0887 13.8422 38.4998 13.8007Z" fill="#EE1D52"/>
    <path d="M36.7132 13.6305V18.2149C36.7132 18.2149 34.5413 18.1298 32.9328 17.7207C30.6878 17.1487 29.2441 16.2713 29.2441 16.2713C29.2441 16.2713 28.2481 15.6456 28.1675 15.6013V27.6875C28.1675 28.3604 27.9832 30.0415 27.4214 31.4424C26.688 33.2765 25.5562 34.48 25.3481 34.726C25.3481 34.726 23.9708 36.3528 21.543 37.4483C19.3547 38.4365 17.4328 38.4115 16.8576 38.4365C16.8576 38.4365 13.536 38.5681 10.5457 36.6252L10.5308 36.6145C10.2151 36.3088 9.91788 35.986 9.64069 35.6477C8.68645 34.4843 8.10152 33.1085 7.95454 32.7159C7.95428 32.7142 7.95428 32.7126 7.95454 32.7109C7.71803 32.0287 7.22113 30.3905 7.28903 28.8037C7.40915 26.0042 8.39398 24.2859 8.65437 23.8554C9.34398 22.6815 10.2409 21.6312 11.3052 20.7512C12.2444 19.9919 13.309 19.3878 14.4552 18.9635C15.6943 18.4655 17.0212 18.1985 18.3647 18.177V22.8178C18.3647 22.8178 15.9071 22.0384 13.9404 23.4185C12.5654 24.4396 11.8357 25.4357 11.6208 27.2148C11.6119 28.5241 11.9468 30.3769 13.7845 31.6125C13.9988 31.7484 14.2092 31.869 14.4156 31.9744C14.7367 32.3917 15.1274 32.7553 15.5721 33.0506C17.3672 34.1868 18.8713 34.2662 20.7947 33.5282C22.0772 33.0348 23.0426 31.9229 23.4903 30.6908C23.7716 29.9214 23.7678 29.147 23.7678 28.3461V5.56372H28.2444C28.4294 6.6156 28.9412 8.11297 30.2946 9.59604C30.8375 10.156 31.449 10.6511 32.1158 11.0705C32.3128 11.2743 33.32 12.2819 34.613 12.9004C35.2815 13.2201 35.9862 13.4651 36.7132 13.6305V13.6305Z" fill="black"/>
    <path d="M6.17285 31.2908V31.2943L6.28393 31.5954C6.27117 31.5604 6.22989 31.4538 6.17285 31.2908Z" fill="#69C9D0"/>
    <path d="M14.4551 18.9636C13.3089 19.3878 12.2443 19.992 11.3051 20.7513C10.2405 21.6333 9.34379 22.6858 8.65505 23.8619C8.39466 24.291 7.40983 26.0107 7.28971 28.8102C7.22182 30.397 7.71871 32.0352 7.95522 32.7174C7.95496 32.7191 7.95496 32.7208 7.95522 32.7224C8.10444 33.1114 8.68713 34.4872 9.64137 35.6542C9.91856 35.9925 10.2157 36.3153 10.5315 36.621C9.51991 35.9505 8.61776 35.1398 7.8545 34.2155C6.90846 33.0621 6.32502 31.7006 6.17282 31.2987C6.17264 31.2959 6.17264 31.293 6.17282 31.2901V31.2851C5.93556 30.6037 5.43718 28.9647 5.50656 27.3758C5.62668 24.5763 6.61152 22.8579 6.8719 22.4275C7.56044 21.2512 8.45717 20.1987 9.522 19.3169C10.461 18.5573 11.5256 17.9531 12.672 17.5292C13.387 17.2448 14.1319 17.0351 14.8938 16.9035C16.042 16.7114 17.2147 16.6947 18.3683 16.8542V18.1771C17.0236 18.1981 15.6954 18.4651 14.4551 18.9636Z" fill="#69C9D0"/>
    <path d="M28.248 5.56374H23.7714V28.3468C23.7714 29.1477 23.7714 29.92 23.4939 30.6915C23.0418 31.9229 22.0801 33.0348 20.7983 33.5282C18.8741 34.2691 17.37 34.1868 15.5757 33.0506C15.1302 32.7566 14.7385 32.3942 14.4163 31.978C15.945 32.7595 17.3133 32.746 19.0084 32.0938C20.2895 31.6004 21.2526 30.4885 21.7033 29.2564C21.9853 28.487 21.9816 27.7125 21.9816 26.9124V4.125H28.1629C28.1629 4.125 28.0935 4.69134 28.248 5.56374ZM36.7131 12.3627V13.6305C35.9874 13.4649 35.2839 13.2199 34.6166 12.9004C33.3236 12.2819 32.3164 11.2743 32.1194 11.0705C32.348 11.2144 32.5851 11.3452 32.8297 11.4624C34.4017 12.2147 35.9498 12.4392 36.7131 12.3627Z" fill="#69C9D0"/>
</svg>
