<svg width="44" height="44" viewBox="0 0 44 44" fill="none" xmlns="http://www.w3.org/2000/svg">
    <path fill-rule="evenodd" clip-rule="evenodd" d="M22 42.625C32.6315 42.625 41.25 34.0065 41.25 23.375C41.25 12.7435 32.6315 4.125 22 4.125C11.3685 4.125 2.75 12.7435 2.75 23.375C2.75 26.8275 3.65887 30.0676 5.2504 32.8693L2.75 42.625L12.8079 40.2927C15.5394 41.78 18.671 42.625 22 42.625ZM22 39.6635C30.9959 39.6635 38.2885 32.3709 38.2885 23.375C38.2885 14.3791 30.9959 7.08654 22 7.08654C13.0041 7.08654 5.71154 14.3791 5.71154 23.375C5.71154 26.8483 6.79869 30.0678 8.65128 32.7116L7.19231 38.1827L12.7599 36.7908C15.3854 38.6025 18.5688 39.6635 22 39.6635Z" fill="#BFC8D0"/>
    <path d="M38.5 22C38.5 31.1127 31.1127 38.5 22 38.5C18.5242 38.5 15.2995 37.4253 12.6399 35.59L7 37L8.47792 31.4578C6.60127 28.7797 5.5 25.5184 5.5 22C5.5 12.8873 12.8873 5.5 22 5.5C31.1127 5.5 38.5 12.8873 38.5 22Z" fill="url(#paint0_linear_271_741)"/>
    <path fill-rule="evenodd" clip-rule="evenodd" d="M22 41.25C32.6315 41.25 41.25 32.6315 41.25 22C41.25 11.3685 32.6315 2.75 22 2.75C11.3685 2.75 2.75 11.3685 2.75 22C2.75 25.4525 3.65887 28.6926 5.2504 31.4943L2.75 41.25L12.8079 38.9177C15.5394 40.405 18.671 41.25 22 41.25ZM22 38.2885C30.9959 38.2885 38.2885 30.9959 38.2885 22C38.2885 13.0041 30.9959 5.71154 22 5.71154C13.0041 5.71154 5.71154 13.0041 5.71154 22C5.71154 25.4733 6.79869 28.6928 8.65128 31.3366L7.19231 36.8077L12.7599 35.4158C15.3854 37.2275 18.5688 38.2885 22 38.2885Z" fill="white"/>
    <path d="M17.1875 13.0624C16.7298 12.1431 16.0277 12.2245 15.3184 12.2245C14.0508 12.2245 12.0742 13.7429 12.0742 16.5687C12.0742 18.8847 13.0947 21.4198 16.5336 25.2122C19.8523 28.8721 24.2129 30.7654 27.833 30.701C31.4531 30.6365 32.198 27.5213 32.198 26.4693C32.198 26.003 31.9086 25.7703 31.7092 25.7071C30.4756 25.115 28.2003 24.0119 27.6826 23.8046C27.1649 23.5974 26.8946 23.8777 26.7266 24.0302C26.2571 24.4776 25.3265 25.7961 25.0078 26.0927C24.6892 26.3893 24.2141 26.2392 24.0164 26.1271C23.289 25.8351 21.3165 24.9578 19.7443 23.4337C17.7998 21.5488 17.6857 20.9003 17.3194 20.323C17.0263 19.8612 17.2414 19.5778 17.3487 19.454C17.7676 18.9706 18.3461 18.2243 18.6055 17.8534C18.8649 17.4825 18.659 16.9195 18.5354 16.5688C18.0039 15.0605 17.5537 13.7978 17.1875 13.0624Z" fill="white"/>
    <defs>
        <linearGradient id="paint0_linear_271_741" x1="36.4375" y1="9.625" x2="5.5" y2="38.5" gradientUnits="userSpaceOnUse">
            <stop stop-color="#5BD066"/>
            <stop offset="1" stop-color="#27B43E"/>
        </linearGradient>
    </defs>
</svg>
