<svg width="131" height="68" viewBox="0 0 131 68" fill="none" xmlns="http://www.w3.org/2000/svg">
    <path fill-rule="evenodd" clip-rule="evenodd" d="M27.5789 16.8421C21.6842 16.8421 17.0526 21.4737 17.0526 27.3684C17.0526 33.2632 21.6842 37.8947 27.5789 37.8947H43.579C46.3158 37.8947 49.8947 36 51.1579 33.4737L66.7368 6.52632C68.8421 2.94737 73.8947 0 78.1053 0H102.526C117.895 0 130.105 12.4211 130.105 27.5789C130.105 42.7368 117.684 55.1579 102.526 55.1579H93.0526C90.3158 55.1579 86.7368 57.0526 85.4737 59.5789L80.6316 68H60.6316L74.1053 44.6316C76.2105 41.0526 81.2632 38.1053 85.4737 38.1053H102.316C108.211 38.1053 112.842 33.4737 112.842 27.5789C112.842 21.6842 108.211 17.0526 102.316 17.0526H83.1579C80.4211 17.0526 76.8421 18.9474 75.579 21.4737L60.2105 48.4211C58.1053 52 53.0526 54.9474 48.8421 54.9474H27.7895C12.4211 55.1579 0 42.7368 0 27.5789C0 12.4211 12.4211 0 27.5789 0H56.4211L46.7368 16.8421H27.5789Z" fill="#009A5E"/>
</svg>
