<svg width="42" height="42" viewBox="0 0 42 42" fill="none" xmlns="http://www.w3.org/2000/svg">
    <rect width="42" height="42" rx="8" fill="white" fill-opacity="0.1"/>
    <path d="M21 28.2C18.5 28.2 16.29 26.92 15 25C15.03 23 19 21.9 21 21.9C23 21.9 26.97 23 27 25C25.71 26.92 23.5 28.2 21 28.2ZM21 14C21.7956 14 22.5587 14.3161 23.1213 14.8787C23.6839 15.4413 24 16.2044 24 17C24 17.7956 23.6839 18.5587 23.1213 19.1213C22.5587 19.6839 21.7956 20 21 20C20.2044 20 19.4413 19.6839 18.8787 19.1213C18.3161 18.5587 18 17.7956 18 17C18 16.2044 18.3161 15.4413 18.8787 14.8787C19.4413 14.3161 20.2044 14 21 14ZM21 11C19.6868 11 18.3864 11.2587 17.1732 11.7612C15.9599 12.2638 14.8575 13.0003 13.9289 13.9289C12.0536 15.8043 11 18.3478 11 21C11 23.6522 12.0536 26.1957 13.9289 28.0711C14.8575 28.9997 15.9599 29.7362 17.1732 30.2388C18.3864 30.7413 19.6868 31 21 31C23.6522 31 26.1957 29.9464 28.0711 28.0711C29.9464 26.1957 31 23.6522 31 21C31 15.47 26.5 11 21 11Z" fill="#CD2027"/>
</svg>
