<svg width="42" height="42" viewBox="0 0 42 42" fill="none" xmlns="http://www.w3.org/2000/svg">
    <rect width="42" height="42" rx="8" fill="white" fill-opacity="0.1"/>
    <path d="M25.36 23C25.44 22.34 25.5 21.68 25.5 21C25.5 20.32 25.44 19.66 25.36 19H28.74C28.9 19.64 29 20.31 29 21C29 21.69 28.9 22.36 28.74 23M23.59 28.56C24.19 27.45 24.65 26.25 24.97 25H27.92C26.96 26.65 25.43 27.93 23.59 28.56ZM23.34 23H18.66C18.56 22.34 18.5 21.68 18.5 21C18.5 20.32 18.56 19.65 18.66 19H23.34C23.43 19.65 23.5 20.32 23.5 21C23.5 21.68 23.43 22.34 23.34 23ZM21 28.96C20.17 27.76 19.5 26.43 19.09 25H22.91C22.5 26.43 21.83 27.76 21 28.96ZM17 17H14.08C15.03 15.34 16.57 14.06 18.4 13.44C17.8 14.55 17.35 15.75 17 17ZM14.08 25H17C17.35 26.25 17.8 27.45 18.4 28.56C16.57 27.93 15.03 26.65 14.08 25ZM13.26 23C13.1 22.36 13 21.69 13 21C13 20.31 13.1 19.64 13.26 19H16.64C16.56 19.66 16.5 20.32 16.5 21C16.5 21.68 16.56 22.34 16.64 23M21 13.03C21.83 14.23 22.5 15.57 22.91 17H19.09C19.5 15.57 20.17 14.23 21 13.03ZM27.92 17H24.97C24.65 15.75 24.19 14.55 23.59 13.44C25.43 14.07 26.96 15.34 27.92 17ZM21 11C15.47 11 11 15.5 11 21C11 23.6522 12.0536 26.1957 13.9289 28.0711C14.8575 28.9997 15.9599 29.7362 17.1732 30.2388C18.3864 30.7413 19.6868 31 21 31C23.6522 31 26.1957 29.9464 28.0711 28.0711C29.9464 26.1957 31 23.6522 31 21C31 19.6868 30.7413 18.3864 30.2388 17.1732C29.7362 15.9599 28.9997 14.8575 28.0711 13.9289C27.1425 13.0003 26.0401 12.2638 24.8268 11.7612C23.6136 11.2587 22.3132 11 21 11Z" fill="#CD2027"/>
</svg>
